PathFileType	4	(X/Y/Z)	/Users/mathieubourgeois/Desktop/Analyse/Traitement/Sujet_05/Data/Transformed_Sujet_05_velo_80.trc
DataRate	CameraRate	NumFrames	NumMarkers	Units	OrigDataRate	OrigDataStartFrame	OrigNumFrames
120.000000	120.000000	4	36	mm	120.000000	1235	1976
Frame#	Time	RFHD			RANE			STRN			LANI			LKNE			T10			RHUM			RWRB			C7			LFWT			LTOE			RTOE			LWRA			LBWT			RBWT			RFWT			LKNI			RKNI			RKNE			LANE			RANI			LHEE			RHEE			LHUM			LRAD			RRAD			RWRA			LWRB			LFHD			LBHD			RBHD			RSHO			LSHO			CLAV			LCAR			RCAR			
		X1	Y1	Z1	X2	Y2	Z2	X3	Y3	Z3	X4	Y4	Z4	X5	Y5	Z5	X6	Y6	Z6	X7	Y7	Z7	X8	Y8	Z8	X9	Y9	Z9	X10	Y10	Z10	X11	Y11	Z11	X12	Y12	Z12	X13	Y13	Z13	X14	Y14	Z14	X15	Y15	Z15	X16	Y16	Z16	X17	Y17	Z17	X18	Y18	Z18	X19	Y19	Z19	X20	Y20	Z20	X21	Y21	Z21	X22	Y22	Z22	X23	Y23	Z23	X24	Y24	Z24	X25	Y25	Z25	X26	Y26	Z26	X27	Y27	Z27	X28	Y28	Z28	X29	Y29	Z29	X30	Y30	Z30	X31	Y31	Z31	X32	Y32	Z32	X33	Y33	Z33	X34	Y34	Z34	X35	Y35	Z35	X36	Y36	Z36	

1236	10.29166666666667	130.1451873779297	1406.533081054688	104.2583389282226	-377.2210388183594	355.0360717773438	193.0569915771484	-203.662841796875	1149.450317382812	24.32424545288076	-115.0097274780273	506.6075439453125	-58.8950576782227	-58.56203460693357	883.5200805664062	-149.645736694336	-333.9109802246094	1354.386596679688	42.16973876953112	24.29716873168943	1035.591796875	196.0267181396484	241.1340026855468	891.7018432617188	247.894790649414	-114.7603607177734	1423.759765625	22.66344261169423	-371.1078491210938	1083.169311523438	-76.22137451171886	34.98777770996095	413.3166809082031	-92.59979248046878	-264.660400390625	188.5756530761719	153.3288116455078	271.6148681640625	933.9989624023438	-148.9771575927735	-539.5391235351562	1106.739868164062	-9.177649497985973	-527.1702270507812	1112.196655273438	127.6260375976561	-363.0986633300781	1067.234008789062	169.1640167236327	-47.52447128295898	856.1275024414062	-46.03541183471685	-172.7109527587891	652.3465576171875	112.8825683593749	-173.0886993408203	692.27490234375	220.2859954833984	-144.1436309814453	512.0614624023438	-138.7885131835938	-343.7590026855469	346.7103576660156	111.4299850463867	-200.5735168457031	475.4669189453125	-94.85170745849615	-439.4998168945312	363.0602416992188	148.3275146484374	15.30024623870851	1044.037841796875	-150.9945678710938	63.71652984619143	1073.966552734375	-194.2228393554688	65.86020660400388	1069.695556640625	245.6778869628906	274.5667114257812	933.4290771484375	194.8705139160156	237.2207794189453	884.0877685546875	-181.9305572509766	142.7523803710938	1407.251220703125	-42.54720306396491	7.845181465148933	1477.874633789062	-59.66850662231455	-13.63459777832032	1500.409301757812	72.72041320800773	-28.0256977081299	1329.593994140625	164.9866638183593	-72.1151657104492	1332.600463867188	-132.6938018798829	-86.91588592529297	1279.557006835938	23.02393150329581	314.5354309082031	925.6056518554688	-226.0917205810547	319.2073974609374	929.408935546875	284.1851806640625	
1237	10.3	129.4156799316406	1406.19140625	105.4254302978515	-380.1469421386719	367.1633605957031	193.426773071289	-204.5174255371094	1149.27392578125	24.37757301330557	-110.1254043579101	494.6136169433594	-59.13105773925786	-60.9165458679199	873.8576049804688	-149.5374755859376	-334.6472778320312	1354.23193359375	41.99150085449206	23.78460502624509	1035.077880859375	196.1917419433593	241.0249938964843	891.6680908203125	247.8843383789062	-115.3976516723633	1423.50244140625	23.55601501464833	-370.8175048828125	1082.446533203125	-77.19039916992199	41.07024002075197	402.7601928710938	-92.67012786865237	-271.9547119140625	198.0282135009766	153.4042358398437	271.6172180175781	933.932861328125	-148.8553771972657	-540.0842895507812	1105.846069335938	-9.902536392212047	-528.053466796875	1111.758178710938	126.8865127563475	-363.77490234375	1067.583740234375	168.4574737548827	-43.74779891967773	846.887939453125	-45.72544097900396	-168.7330017089844	658.4249877929688	114.4057388305663	-167.2769775390625	697.8362426757812	221.4219512939452	-139.2472381591797	499.6382751464844	-138.8077087402344	-346.9190673828125	358.1503601074219	111.7467727661132	-194.7876892089844	461.7823181152344	-94.80992126464849	-442.2616271972656	376.8721923828125	148.7699890136718	15.17937183380129	1043.871459960938	-150.7366333007813	63.62933731079104	1073.891723632812	-193.9146423339844	65.19897460937497	1069.162719726562	245.9896240234374	274.331787109375	933.5186157226562	194.9027862548828	237.1923370361328	884.0565185546875	-181.8972473144532	142.1106262207031	1407.22216796875	-41.37977218627937	7.208838939666755	1477.8779296875	-58.46028900146494	-14.40766239166261	1500.086669921875	73.96737670898429	-29.17967796325686	1329.00146484375	166.0761413574218	-72.2326202392578	1332.409301757812	-131.883285522461	-87.72457122802734	1279.2763671875	23.72440910339347	314.4958801269531	925.6936645507812	-226.0449371337891	319.0661315917968	929.44970703125	284.1896362304688	
1238	10.30833333333333	128.7011566162109	1405.93212890625	106.6526489257812	-382.38232421875	379.6239013671875	193.7474670410155	-205.3233795166016	1149.146850585938	24.48969841003408	-105.8143768310547	481.1097106933594	-60.81028747558598	-63.25709152221678	862.9669189453125	-149.7934875488282	-335.3095092773438	1354.128295898438	41.81652832031237	23.35395812988279	1034.572387695312	196.3657226562499	240.9347839355468	891.6382446289062	247.8864440917968	-115.9701614379883	1423.28271484375	24.49139785766591	-370.4938354492188	1081.873657226562	-77.99165344238293	46.33560943603517	391.333251953125	-92.78332519531253	-278.41357421875	207.9396667480469	153.4684906005859	271.6352844238281	933.8093872070312	-148.7986907958985	-540.5272827148438	1105.048583984375	-10.73204612731947	-528.8626708984375	1111.311889648438	126.0319213867186	-364.4642639160156	1068.076171875	167.7974700927733	-47.19357681274413	835.915283203125	-45.60892105102545	-163.3397674560547	664.57275390625	115.6286392211913	-161.5025787353516	703.8187255859375	222.664810180664	-135.0729522705078	486.925537109375	-138.8289184570313	-349.3764038085938	369.9685363769531	112.0640182495116	-189.7916870117188	448.8161926269531	-94.60214996337896	-445.1110534667969	391.7195739746094	149.9209442138671	15.10726165771486	1043.688720703125	-150.5149841308594	63.5924758911133	1073.78466796875	-193.6239624023438	64.59254455566403	1068.607788085938	246.2847442626953	274.1319885253906	933.6036987304688	194.9054412841797	237.2024078369141	883.9945068359375	-181.908920288086	141.5103149414062	1407.268920898438	-40.15238571166999	6.594851493835456	1477.912475585938	-57.16848373413095	-15.132643699646	1499.8408203125	75.26871490478507	-30.27346420288088	1328.360107421875	167.2421874999999	-72.26229858398436	1332.146606445312	-131.0856018066407	-88.43592834472656	1279.018798828125	24.45070838928214	314.460205078125	925.74853515625	-226.0410461425782	318.9772949218749	929.4837646484375	284.1431274414062	
1239	10.31666666666667	128.0091705322266	1405.854248046875	107.8402404785156	-383.8960266113281	392.3425598144531	194.0087127685546	-206.1618041992188	1149.0322265625	24.63849830627432	-100.0759201049805	469.0118713378906	-59.10961914062504	-67.38151550292967	852.8991088867188	-149.8652801513672	-335.9248352050781	1354.10595703125	41.60727310180651	22.95952415466306	1034.072998046875	196.570083618164	240.914794921875	891.6091918945312	247.8412628173828	-116.4490203857422	1423.125244140625	25.46802902221669	-370.0407104492188	1081.254028320312	-78.75650024414074	50.63072967529298	379.4696655273438	-92.831657409668	-283.8107299804688	218.4649810791016	153.6278076171875	271.7184448242188	933.6718139648438	-148.7822418212891	-540.828857421875	1104.339721679688	-11.65506744384779	-529.6355590820312	1110.966186523438	125.0779953002928	-365.0675659179688	1068.682250976562	167.188995361328	-49.01322174072265	825.7569580078125	-46.33085632324224	-157.8318481445313	671.1553955078125	116.9021987915038	-155.763900756836	710.2637329101562	223.8789672851562	-131.7240142822265	473.9251403808594	-138.8235473632813	-351.0557250976562	382.0571899414062	112.3705749511718	-185.6298522949219	435.4043884277344	-94.53868103027349	-446.1754455566406	405.2583923339844	149.4247741699218	15.11841964721681	1043.452758789062	-150.3122558593751	63.56467056274416	1073.615600585938	-193.3713378906251	64.12493133544919	1068.089965820312	246.5503845214843	273.98486328125	933.6823120117188	194.8906860351562	237.2489166259766	883.8519897460938	-181.9568023681641	141.0228118896484	1407.4013671875	-38.80136489868171	6.083804130554206	1477.97900390625	-55.82186126708994	-15.80528163909913	1499.608154296875	76.6243133544921	-31.34239006042483	1327.694702148438	168.454376220703	-72.26115417480467	1331.891357421875	-130.2695312500001	-89.12538146972656	1278.799194335938	25.28905296325675	314.4822082519531	925.7775268554688	-226.1040649414063	318.9355163574218	929.49560546875	284.0650329589844	
